<svg width="20" height="21" viewBox="0 0 20 21" fill="none" xmlns="http://www.w3.org/2000/svg">
<path d="M9.85141 5.39781C7.05649 5.39781 4.80211 7.6522 4.80211 10.4471C4.80211 13.242 7.05649 15.4964 9.85141 15.4964C12.6463 15.4964 14.9007 13.242 14.9007 10.4471C14.9007 7.6522 12.6463 5.39781 9.85141 5.39781ZM9.85141 13.7298C8.04526 13.7298 6.5687 12.2576 6.5687 10.4471C6.5687 8.63657 8.04087 7.16441 9.85141 7.16441C11.6619 7.16441 13.1341 8.63657 13.1341 10.4471C13.1341 12.2576 11.6576 13.7298 9.85141 13.7298ZM16.285 5.19127C16.285 5.84605 15.7576 6.369 15.1072 6.369C14.4525 6.369 13.9295 5.84166 13.9295 5.19127C13.9295 4.54088 14.4569 4.01354 15.1072 4.01354C15.7576 4.01354 16.285 4.54088 16.285 5.19127ZM19.6292 6.38658C19.5545 4.80895 19.1941 3.41149 18.0384 2.26013C16.887 1.10876 15.4896 0.748413 13.9119 0.669311C12.286 0.577026 7.41245 0.577026 5.78648 0.669311C4.21324 0.744018 2.81579 1.10437 1.66003 2.25573C0.504271 3.40709 0.148315 4.80455 0.0692136 6.38218C-0.0230712 8.00815 -0.0230712 12.8817 0.0692136 14.5076C0.14392 16.0853 0.504271 17.4827 1.66003 18.6341C2.81579 19.7855 4.20885 20.1458 5.78648 20.2249C7.41245 20.3172 12.286 20.3172 13.9119 20.2249C15.4896 20.1502 16.887 19.7898 18.0384 18.6341C19.1898 17.4827 19.5501 16.0853 19.6292 14.5076C19.7215 12.8817 19.7215 8.01255 19.6292 6.38658ZM17.5286 16.2523C17.1859 17.1136 16.5223 17.7772 15.6566 18.1243C14.3602 18.6385 11.284 18.5198 9.85141 18.5198C8.41879 18.5198 5.33824 18.6341 4.04625 18.1243C3.18493 17.7816 2.52135 17.118 2.17419 16.2523C1.66003 14.9559 1.77868 11.8797 1.77868 10.4471C1.77868 9.0145 1.66442 5.93394 2.17419 4.64195C2.51696 3.78063 3.18053 3.11706 4.04625 2.76989C5.34263 2.25573 8.41879 2.37438 9.85141 2.37438C11.284 2.37438 14.3646 2.26013 15.6566 2.76989C16.5179 3.11266 17.1815 3.77623 17.5286 4.64195C18.0428 5.93834 17.9241 9.0145 17.9241 10.4471C17.9241 11.8797 18.0428 14.9603 17.5286 16.2523Z" fill="#F3D098"/>
</svg>
