<svg width="24" height="21" viewBox="0 0 24 21" fill="none" xmlns="http://www.w3.org/2000/svg">
<path d="M21.8284 0.48353C21.5485 0.503893 21.2738 0.569556 21.015 0.677957H21.0115C20.763 0.776478 19.5816 1.27345 17.7855 2.02674L11.3494 4.73739C6.73107 6.68167 2.19124 8.5963 2.19124 8.5963L2.24529 8.57537C2.24529 8.57537 1.93229 8.67825 1.60534 8.90232C1.40335 9.03086 1.22954 9.19903 1.09442 9.39668C0.933998 9.63208 0.804961 9.99216 0.852914 10.3645C0.931382 10.9939 1.33942 11.3715 1.63237 11.5798C1.9288 11.7908 2.21129 11.8894 2.21129 11.8894H2.21827L6.47562 13.3236C6.66656 13.9365 7.77296 17.574 8.03888 18.4118C8.19582 18.9123 8.3484 19.2253 8.53934 19.4642C8.63175 19.5862 8.73987 19.6883 8.86978 19.7702C8.93731 19.8095 9.00932 19.8405 9.08426 19.8626L9.04066 19.8522C9.05374 19.8557 9.0642 19.8661 9.07379 19.8696C9.10867 19.8792 9.13221 19.8827 9.17667 19.8897C9.85063 20.0937 10.3921 19.6752 10.3921 19.6752L10.4226 19.6508L12.9362 17.3621L17.1491 20.5941L17.245 20.6351C18.123 21.0205 19.0123 20.806 19.4822 20.4276C19.9556 20.0466 20.1396 19.5592 20.1396 19.5592L20.1701 19.4807L23.4257 2.80271C23.5181 2.39119 23.5416 2.00582 23.4396 1.63178C23.3344 1.25324 23.0916 0.927667 22.7587 0.718935C22.4792 0.54902 22.1551 0.467006 21.8284 0.48353ZM21.7403 2.27087C21.7369 2.32579 21.7473 2.31969 21.7229 2.42519V2.43478L18.4979 18.9393C18.4839 18.9629 18.4604 19.0143 18.3958 19.0657C18.3278 19.1198 18.2738 19.1538 17.9904 19.0413L12.8377 15.0909L9.72508 17.9279L10.379 13.7517L18.7978 5.90483C19.1448 5.58224 19.0288 5.51423 19.0288 5.51423C19.0532 5.1184 18.5048 5.39827 18.5048 5.39827L7.88892 11.9748L7.88543 11.9574L2.79719 10.2441V10.2406L2.78411 10.238C2.79303 10.2351 2.80176 10.2316 2.81027 10.2276L2.83817 10.2136L2.86519 10.204C2.86519 10.204 7.40852 8.2894 12.0268 6.34512C14.339 5.37124 16.6687 4.39039 18.4604 3.6336C19.523 3.18634 20.5866 2.74168 21.6514 2.29964C21.7229 2.27174 21.6889 2.27087 21.7403 2.27087Z" fill="#F3D098"/>
</svg>
