<svg width="30" height="19" viewBox="0 0 30 19" fill="none" xmlns="http://www.w3.org/2000/svg">
<path d="M22.0147 1.98592L22.0147 1.98591L22.0126 1.99109L22.0126 1.99112L22.0125 1.99124L22.0125 1.99126L22.012 1.99262L22.0092 1.99928L21.9973 2.02797C21.9866 2.05379 21.9702 2.09277 21.9485 2.14368C21.9049 2.24553 21.8398 2.39504 21.7549 2.5825C21.5849 2.95768 21.3361 3.48343 21.0224 4.08248C20.3933 5.2838 19.5203 6.74625 18.516 7.88413C18.1896 8.21316 17.9855 8.39475 17.8376 8.4963C17.8356 8.46969 17.8345 8.4398 17.8345 8.40638V2.49846C17.8345 2.09083 17.7854 1.63004 17.523 1.26817C17.2197 0.849902 16.7619 0.724905 16.3274 0.724905H11.6861C10.8389 0.724905 10.2592 1.38474 10.2592 2.08334C10.2592 2.45162 10.403 2.7301 10.5446 2.93735C10.6116 3.03549 10.6866 3.12955 10.7486 3.20726L10.7564 3.21713C10.8196 3.29626 10.8763 3.36733 10.9332 3.44566C11.1419 3.73302 11.3824 4.154 11.4321 5.01319V9.3885C11.4321 9.53354 11.4279 9.65004 11.4207 9.74333C11.3242 9.66943 11.2063 9.56259 11.0687 9.41696C10.7184 9.0462 10.3015 8.48908 9.85726 7.77978C8.9713 6.3652 8.02356 4.42075 7.318 2.34224L7.31804 2.34222L7.31547 2.33492C7.16521 1.90841 6.97706 1.48059 6.64467 1.17397C6.27714 0.834941 5.82903 0.724905 5.34556 0.724905H2.39334C1.87994 0.724905 1.4094 0.845912 1.08191 1.1907C0.75826 1.53144 0.705862 1.95451 0.705862 2.24534C0.705862 2.53633 0.788928 3.00119 0.943098 3.57196C1.10247 4.16199 1.35176 4.91526 1.71558 5.80223C2.44323 7.57623 3.63377 9.89671 5.49387 12.529C8.02954 16.2031 11.656 18.2748 15.0543 18.2748C15.9944 18.2748 16.7134 18.1789 17.1926 17.8544C17.7763 17.4593 17.8395 16.8635 17.8395 16.4405C17.8395 15.9331 17.8355 15.4778 17.8321 15.0909C17.83 14.8423 17.828 14.6219 17.8276 14.434C17.8263 13.9206 17.8358 13.6145 17.8646 13.4219C17.8649 13.4199 17.8652 13.4179 17.8655 13.4159C17.8859 13.4153 17.9094 13.4149 17.9364 13.4149C18.0834 13.4149 18.6632 13.4566 20.4034 15.1481C20.891 15.6408 21.2776 16.0661 21.6036 16.4308C21.6637 16.4979 21.7223 16.5638 21.7797 16.6283C22.0287 16.9079 22.2533 17.1602 22.4583 17.3679C22.7131 17.6259 22.9791 17.8591 23.2891 18.0232C23.614 18.1952 23.9549 18.2748 24.337 18.2748H27.2893C27.7968 18.2748 28.3539 18.1498 28.721 17.7213C29.1081 17.2694 29.1168 16.6825 28.9597 16.1449L28.9574 16.1373L28.9551 16.1298C28.7789 15.5755 28.3785 14.9418 27.9349 14.3404C27.4796 13.723 26.9316 13.0775 26.4047 12.4898C25.8765 11.9008 25.3621 11.3616 24.9716 10.9569C24.879 10.861 24.7951 10.7743 24.7195 10.6963C24.6331 10.6071 24.5576 10.5292 24.4928 10.4617C24.4328 10.3993 24.3869 10.351 24.3545 10.3158C24.3352 10.2949 24.3258 10.2841 24.3229 10.2808L24.3207 10.2781C24.2196 10.1465 24.1887 10.0775 24.1802 10.0513C24.1831 10.0415 24.1897 10.0223 24.2045 9.9907C24.2334 9.92905 24.2772 9.85317 24.3493 9.73523L24.3801 9.69145C24.4075 9.65228 24.4473 9.59524 24.4977 9.52241C24.5987 9.37673 24.7426 9.16748 24.9162 8.91129C25.2632 8.39927 25.7299 7.69794 26.2088 6.94095C26.6868 6.18537 27.1815 5.36714 27.5821 4.6229C27.9651 3.91162 28.3001 3.20033 28.4201 2.6642C28.5279 2.28334 28.5818 1.76808 28.2793 1.32895C27.9582 0.862855 27.4078 0.724905 26.8732 0.724905H23.921C23.4175 0.724905 22.9938 0.861885 22.6571 1.11932C22.3291 1.37005 22.1357 1.69527 22.0147 1.98592ZM17.8915 13.3005C17.8915 13.3006 17.8913 13.3012 17.8907 13.3024L17.8915 13.3005ZM24.1774 10.0387C24.1777 10.0388 24.1784 10.0414 24.1787 10.0462C24.1773 10.041 24.1771 10.0386 24.1774 10.0387Z" stroke="#F3D098" stroke-width="1.35"/>
</svg>
