<svg width="22" height="22" viewBox="0 0 22 22" fill="none" xmlns="http://www.w3.org/2000/svg">
<path d="M18.6019 3.15565C17.6393 2.18327 16.4926 1.41231 15.2289 0.887711C13.9652 0.363115 12.6097 0.0953936 11.2414 0.10016C5.50844 0.10016 0.835953 4.77264 0.835953 10.5056C0.835953 12.3431 1.31895 14.1281 2.22195 15.7031L0.751953 21.1001L6.26443 19.6511C7.78693 20.4806 9.49842 20.9216 11.2414 20.9216C16.9744 20.9216 21.6469 16.2491 21.6469 10.5161C21.6469 7.73363 20.5654 5.11914 18.6019 3.15565ZM11.2414 19.1576C9.68742 19.1576 8.16493 18.7376 6.83143 17.9501L6.51643 17.7611L3.24044 18.6221L4.11194 15.4301L3.90194 15.1046C3.03858 13.7259 2.58014 12.1323 2.57895 10.5056C2.57895 5.73864 6.46393 1.85365 11.2309 1.85365C13.5409 1.85365 15.7144 2.75665 17.3419 4.39465C18.1477 5.1968 18.7864 6.15093 19.2208 7.20173C19.6551 8.25253 19.8766 9.37909 19.8724 10.5161C19.8934 15.2831 16.0084 19.1576 11.2414 19.1576ZM15.9874 12.6896C15.7249 12.5636 14.4439 11.9336 14.2129 11.8391C13.9714 11.7551 13.8034 11.7131 13.6249 11.9651C13.4464 12.2276 12.9529 12.8156 12.8059 12.9836C12.6589 13.1621 12.5014 13.1831 12.2389 13.0466C11.9764 12.9206 11.1364 12.6371 10.1494 11.7551C9.37242 11.0621 8.85792 10.2116 8.70042 9.94913C8.55342 9.68663 8.67942 9.55013 8.81592 9.41363C8.93142 9.29813 9.07842 9.10913 9.20442 8.96213C9.33042 8.81513 9.38292 8.69963 9.46692 8.53163C9.55092 8.35313 9.50892 8.20613 9.44592 8.08013C9.38292 7.95413 8.85792 6.67314 8.64792 6.14814C8.43793 5.64414 8.21743 5.70714 8.05993 5.69664H7.55593C7.37743 5.69664 7.10443 5.75964 6.86293 6.02214C6.63193 6.28464 5.95993 6.91464 5.95993 8.19563C5.95993 9.47663 6.89443 10.7156 7.02043 10.8836C7.14643 11.0621 8.85792 13.6871 11.4619 14.8106C12.0814 15.0836 12.5644 15.2411 12.9424 15.3566C13.5619 15.5561 14.1289 15.5246 14.5804 15.4616C15.0844 15.3881 16.1239 14.8316 16.3339 14.2226C16.5544 13.6136 16.5544 13.0991 16.4809 12.9836C16.4074 12.8681 16.2499 12.8156 15.9874 12.6896Z" fill="#F3D098"/>
</svg>
